<svg xmlns="http://www.w3.org/2000/svg" xmlns:xlink="http://www.w3.org/1999/xlink" width="60" zoomAndPan="magnify" viewBox="0 0 45 44.999999" height="60" preserveAspectRatio="xMidYMid meet" version="1.0"><defs><g/><clipPath id="88cc063c68"><path d="M 14 10 L 44.484375 10 L 44.484375 44.34375 L 14 44.34375 Z M 14 10 " clip-rule="nonzero"/></clipPath><clipPath id="484087f651"><path d="M 0 0.570312 L 28 0.570312 L 28 39 L 0 39 Z M 0 0.570312 " clip-rule="nonzero"/></clipPath></defs><g clip-path="url(#88cc063c68)"><path fill="#55679c" d="M 44.046875 10.917969 L 35.234375 19.066406 L 35.234375 33.429688 C 35.234375 39.84375 30.820312 44.398438 24.59375 44.398438 C 20.597656 44.398438 16.273438 42.214844 14.183594 39.097656 L 18.085938 35.289062 C 19.203125 37.519531 21.664062 39.144531 24.082031 39.144531 C 27.242188 39.144531 29.472656 36.636719 29.472656 33.058594 L 29.472656 20.101562 L 35.234375 16.46875 Z M 44.046875 10.917969 " fill-opacity="1" fill-rule="nonzero"/></g><g clip-path="url(#484087f651)"><path fill="#1e2a5e" d="M 27.527344 20.6875 C 26.628906 18.597656 24.816406 16.855469 22.316406 15.652344 C 25.148438 14.117188 26.820312 11.839844 26.820312 8.585938 C 26.820312 3.941406 22.917969 0.59375 17.390625 0.59375 L 1.726562 0.59375 L 1.726562 32.519531 L 5.703125 32.519531 L -1.191406 38.789062 L 8.757812 32.519531 L 16.722656 27.5 L 7.492188 27.5 L 7.492188 18.390625 L 16.832031 18.390625 C 19.992188 18.390625 22.222656 20.296875 22.222656 22.945312 C 22.222656 23.363281 22.167969 23.757812 22.066406 24.132812 Z M 15.996094 13.652344 L 7.492188 13.652344 L 7.492188 5.613281 L 15.996094 5.613281 C 18.832031 5.613281 20.875 7.285156 20.875 9.65625 C 20.875 11.980469 18.828125 13.652344 15.996094 13.652344 Z M 15.996094 13.652344 " fill-opacity="1" fill-rule="nonzero"/></g><g fill="#e1d7b7" fill-opacity="1"><g transform="translate(6.23605, 27.830462)"><g><path d="M -0.671875 -3.078125 C -0.648438 -3.097656 -0.628906 -3.109375 -0.609375 -3.109375 C -0.566406 -3.109375 -0.53125 -3.082031 -0.5 -3.03125 L -0.03125 -2.3125 C -0.0078125 -2.289062 0 -2.257812 0 -2.21875 C -0.0195312 -2.164062 -0.046875 -2.132812 -0.078125 -2.125 C -0.453125 -1.957031 -0.6875 -1.84375 -0.78125 -1.78125 L -0.796875 -1.78125 C -1.015625 -1.65625 -1.175781 -1.5625 -1.28125 -1.5 L -1.46875 -1.390625 L -1.375 -1.015625 L -0.171875 -1 C -0.0859375 -1 -0.046875 -0.957031 -0.046875 -0.875 L -0.046875 -0.0625 C -0.046875 -0.0195312 -0.0546875 0.0078125 -0.078125 0.03125 C -0.109375 0.0507812 -0.144531 0.0625 -0.1875 0.0625 L -4.234375 -0.203125 C -4.304688 -0.203125 -4.347656 -0.238281 -4.359375 -0.3125 L -4.484375 -1.296875 L -4.484375 -1.3125 L -4.5 -1.5 C -4.519531 -1.664062 -4.53125 -1.800781 -4.53125 -1.90625 C -4.53125 -2.09375 -4.515625 -2.253906 -4.484375 -2.390625 C -4.429688 -2.640625 -4.296875 -2.828125 -4.078125 -2.953125 C -3.867188 -3.085938 -3.617188 -3.15625 -3.328125 -3.15625 C -3.109375 -3.15625 -2.890625 -3.117188 -2.671875 -3.046875 C -2.453125 -2.972656 -2.257812 -2.851562 -2.09375 -2.6875 C -2 -2.59375 -1.929688 -2.507812 -1.890625 -2.4375 Z M -4.140625 -1.65625 L -4.15625 -1.65625 L -4.15625 -1.609375 L -4.140625 -1.609375 Z M -4.09375 -1.609375 L -4.078125 -1.609375 L -4.078125 -1.640625 C -4.078125 -1.640625 -4.082031 -1.644531 -4.09375 -1.65625 L -4.109375 -1.65625 L -4.109375 -1.609375 Z M -4.078125 -1.9375 C -4.078125 -1.9375 -4.078125 -1.929688 -4.078125 -1.921875 C -4.078125 -1.910156 -4.082031 -1.90625 -4.09375 -1.90625 L -4.0625 -1.90625 Z M -4.046875 -1.8125 L -4.0625 -1.828125 L -4.0625 -1.8125 Z M -4.03125 -1.6875 C -4.03125 -1.695312 -4.03125 -1.703125 -4.03125 -1.703125 C -4.019531 -1.703125 -4.015625 -1.703125 -4.015625 -1.703125 C -4.015625 -1.710938 -4.019531 -1.71875 -4.03125 -1.71875 Z M -4 -1.546875 C -3.976562 -1.515625 -3.957031 -1.507812 -3.9375 -1.53125 L -3.9375 -1.578125 C -3.957031 -1.578125 -3.976562 -1.566406 -4 -1.546875 Z M -4 -2.25 C -4 -2.238281 -3.992188 -2.238281 -3.984375 -2.25 C -3.972656 -2.257812 -3.96875 -2.265625 -3.96875 -2.265625 C -3.96875 -2.273438 -3.972656 -2.28125 -3.984375 -2.28125 C -3.984375 -2.289062 -3.988281 -2.296875 -4 -2.296875 Z M -3.984375 -2.125 C -3.960938 -2.101562 -3.945312 -2.09375 -3.9375 -2.09375 L -3.9375 -2.109375 C -3.945312 -2.128906 -3.957031 -2.140625 -3.96875 -2.140625 C -3.96875 -2.140625 -3.972656 -2.132812 -3.984375 -2.125 Z M -3.9375 -0.4375 L -3.96875 -0.4375 L -3.96875 -0.421875 L -3.9375 -0.421875 Z M -3.96875 -1.8125 C -3.96875 -1.8125 -3.957031 -1.800781 -3.9375 -1.78125 L -3.9375 -1.84375 L -3.953125 -1.859375 L -3.953125 -1.828125 C -3.960938 -1.828125 -3.96875 -1.820312 -3.96875 -1.8125 Z M -3.953125 -1.90625 C -3.941406 -1.90625 -3.9375 -1.90625 -3.9375 -1.90625 L -3.921875 -1.90625 L -3.921875 -1.953125 L -3.953125 -1.953125 Z M -3.9375 -2.453125 L -3.953125 -2.453125 L -3.953125 -2.421875 L -3.9375 -2.421875 Z M -3.890625 -1.53125 L -3.90625 -1.53125 L -3.890625 -1.5 L -3.875 -1.5 Z M -3.875 -2.015625 C -3.882812 -2.023438 -3.890625 -2.023438 -3.890625 -2.015625 L -3.90625 -2 C -3.894531 -1.988281 -3.890625 -1.984375 -3.890625 -1.984375 L -3.875 -1.984375 Z M -3.84375 -1.8125 L -3.875 -1.8125 Z M -3.828125 -1.90625 C -3.816406 -1.894531 -3.804688 -1.878906 -3.796875 -1.859375 L -3.78125 -1.828125 L -3.78125 -1.90625 Z M -3.796875 -2.046875 C -3.804688 -2.035156 -3.8125 -2.015625 -3.8125 -1.984375 C -3.8125 -1.984375 -3.804688 -1.984375 -3.796875 -1.984375 C -3.796875 -1.992188 -3.796875 -2 -3.796875 -2 C -3.796875 -2 -3.796875 -2.007812 -3.796875 -2.03125 Z M -3.78125 -2.140625 C -3.78125 -2.140625 -3.78125 -2.132812 -3.78125 -2.125 C -3.78125 -2.125 -3.78125 -2.117188 -3.78125 -2.109375 L -3.75 -2.125 L -3.765625 -2.15625 L -3.765625 -2.171875 Z M -3.71875 -2.46875 C -3.738281 -2.46875 -3.753906 -2.457031 -3.765625 -2.4375 L -3.703125 -2.4375 Z M -3.75 -2.171875 C -3.738281 -2.148438 -3.726562 -2.140625 -3.71875 -2.140625 C -3.707031 -2.140625 -3.703125 -2.148438 -3.703125 -2.171875 L -3.703125 -2.203125 C -3.722656 -2.210938 -3.742188 -2.210938 -3.765625 -2.203125 Z M -3.71875 -1.328125 C -3.695312 -1.335938 -3.679688 -1.34375 -3.671875 -1.34375 L -3.640625 -1.359375 L -3.65625 -1.390625 L -3.671875 -1.375 L -3.703125 -1.375 C -3.710938 -1.375 -3.71875 -1.378906 -3.71875 -1.390625 Z M -3.671875 -2.21875 C -3.679688 -2.195312 -3.6875 -2.179688 -3.6875 -2.171875 L -3.640625 -2.171875 L -3.640625 -2.203125 L -3.65625 -2.203125 L -3.65625 -2.21875 Z M -3.59375 -2.5 C -3.601562 -2.507812 -3.617188 -2.507812 -3.640625 -2.5 C -3.628906 -2.476562 -3.617188 -2.460938 -3.609375 -2.453125 Z M -3.59375 -2.546875 C -3.582031 -2.546875 -3.570312 -2.550781 -3.5625 -2.5625 C -3.5625 -2.570312 -3.5625 -2.582031 -3.5625 -2.59375 C -3.570312 -2.582031 -3.578125 -2.570312 -3.578125 -2.5625 Z M -2.46875 -1.078125 C -2.5 -1.296875 -2.550781 -1.476562 -2.625 -1.625 C -2.695312 -1.78125 -2.8125 -1.898438 -2.96875 -1.984375 C -3.113281 -2.054688 -3.226562 -2.09375 -3.3125 -2.09375 C -3.351562 -2.09375 -3.394531 -2.082031 -3.4375 -2.0625 C -3.488281 -2.039062 -3.523438 -1.988281 -3.546875 -1.90625 L -3.546875 -1.828125 C -3.546875 -1.765625 -3.535156 -1.703125 -3.515625 -1.640625 L -3.421875 -1.171875 Z M -3.4375 -2.359375 C -3.445312 -2.359375 -3.457031 -2.351562 -3.46875 -2.34375 L -3.46875 -2.328125 L -3.4375 -2.328125 Z M -3.359375 -2.34375 C -3.378906 -2.363281 -3.394531 -2.375 -3.40625 -2.375 L -3.40625 -2.34375 L -3.390625 -2.3125 C -3.378906 -2.300781 -3.375 -2.300781 -3.375 -2.3125 Z M -3.375 -2.4375 C -3.375 -2.457031 -3.382812 -2.46875 -3.40625 -2.46875 L -3.40625 -2.4375 Z M -3.3125 -2.921875 C -3.300781 -2.921875 -3.296875 -2.914062 -3.296875 -2.90625 C -3.285156 -2.914062 -3.28125 -2.921875 -3.28125 -2.921875 C -3.28125 -2.929688 -3.28125 -2.941406 -3.28125 -2.953125 L -3.28125 -2.984375 C -3.289062 -2.992188 -3.300781 -3 -3.3125 -3 C -3.320312 -3 -3.335938 -2.988281 -3.359375 -2.96875 L -3.3125 -2.96875 Z M -3.328125 -2.421875 C -3.316406 -2.421875 -3.3125 -2.414062 -3.3125 -2.40625 L -3.3125 -2.453125 L -3.3125 -2.4375 C -3.320312 -2.4375 -3.328125 -2.429688 -3.328125 -2.421875 Z M -3.265625 -2.4375 L -3.265625 -2.453125 L -3.28125 -2.421875 Z M -3.265625 -2.984375 L -3.265625 -2.96875 L -3.109375 -2.96875 L -3.109375 -2.984375 Z M -2.96875 -2.984375 C -2.988281 -2.984375 -3.007812 -2.992188 -3.03125 -3.015625 C -3.03125 -2.992188 -3.039062 -2.984375 -3.0625 -2.984375 C -3.070312 -2.984375 -3.085938 -2.976562 -3.109375 -2.96875 L -2.640625 -2.96875 C -2.660156 -2.988281 -2.6875 -3 -2.71875 -3 L -2.796875 -2.984375 C -2.816406 -2.984375 -2.835938 -2.984375 -2.859375 -2.984375 C -2.878906 -2.984375 -2.890625 -2.984375 -2.890625 -2.984375 C -2.910156 -2.984375 -2.929688 -2.984375 -2.953125 -2.984375 Z M -2.984375 -2.296875 C -3.015625 -2.285156 -3.03125 -2.265625 -3.03125 -2.234375 Z M -2.9375 -2.359375 L -2.90625 -2.359375 L -2.90625 -2.421875 L -2.9375 -2.421875 Z M -2.84375 -2.25 C -2.851562 -2.25 -2.863281 -2.242188 -2.875 -2.234375 C -2.875 -2.222656 -2.875 -2.210938 -2.875 -2.203125 L -2.828125 -2.1875 Z M -2.75 -0.625 C -2.757812 -0.625 -2.769531 -0.617188 -2.78125 -0.609375 C -2.789062 -0.597656 -2.800781 -0.59375 -2.8125 -0.59375 C -2.800781 -0.582031 -2.789062 -0.5625 -2.78125 -0.53125 L -2.765625 -0.578125 C -2.753906 -0.597656 -2.75 -0.609375 -2.75 -0.609375 Z M -2.75 -2.0625 C -2.75 -2.070312 -2.742188 -2.082031 -2.734375 -2.09375 C -2.734375 -2.101562 -2.734375 -2.113281 -2.734375 -2.125 C -2.742188 -2.132812 -2.75 -2.140625 -2.75 -2.140625 L -2.78125 -2.140625 L -2.796875 -2.09375 C -2.785156 -2.082031 -2.78125 -2.070312 -2.78125 -2.0625 C -2.78125 -2.0625 -2.78125 -2.066406 -2.78125 -2.078125 C -2.78125 -2.066406 -2.773438 -2.0625 -2.765625 -2.0625 Z M -2.78125 -0.484375 C -2.769531 -0.484375 -2.757812 -0.488281 -2.75 -0.5 L -2.765625 -0.515625 C -2.773438 -0.523438 -2.78125 -0.53125 -2.78125 -0.53125 Z M -2.6875 -0.625 C -2.695312 -0.613281 -2.707031 -0.597656 -2.71875 -0.578125 C -2.726562 -0.566406 -2.734375 -0.554688 -2.734375 -0.546875 L -2.71875 -0.53125 C -2.707031 -0.507812 -2.695312 -0.492188 -2.6875 -0.484375 L -2.6875 -0.515625 C -2.675781 -0.523438 -2.671875 -0.53125 -2.671875 -0.53125 Z M -2.71875 -2.234375 L -2.6875 -2.21875 L -2.6875 -2.25 L -2.703125 -2.265625 Z M -2.625 -1.8125 C -2.625 -1.8125 -2.617188 -1.804688 -2.609375 -1.796875 C -2.609375 -1.785156 -2.601562 -1.78125 -2.59375 -1.78125 C -2.582031 -1.789062 -2.578125 -1.800781 -2.578125 -1.8125 L -2.546875 -1.8125 C -2.546875 -1.820312 -2.550781 -1.847656 -2.5625 -1.890625 C -2.582031 -1.867188 -2.59375 -1.84375 -2.59375 -1.8125 C -2.601562 -1.820312 -2.613281 -1.820312 -2.625 -1.8125 Z M -2.59375 -2.0625 L -2.625 -2.046875 L -2.578125 -2 L -2.578125 -2.0625 Z M -2.609375 -0.5 L -2.609375 -0.484375 L -2.5625 -0.5 L -2.5625 -0.515625 Z M -2.53125 -1.9375 C -2.550781 -1.945312 -2.570312 -1.945312 -2.59375 -1.9375 L -2.59375 -1.90625 C -2.5625 -1.914062 -2.539062 -1.925781 -2.53125 -1.9375 Z M -2.546875 -0.5 L -2.515625 -0.484375 L -2.515625 -0.5 L -2.546875 -0.515625 Z M -2.53125 -0.671875 L -2.5 -0.671875 L -2.5 -0.703125 L -2.53125 -0.703125 Z M -2.53125 -1.53125 L -2.5 -1.53125 L -2.5 -1.5625 Z M -2.5 -1.890625 C -2.488281 -1.859375 -2.476562 -1.832031 -2.46875 -1.8125 L -2.46875 -1.875 L -2.4375 -1.984375 L -2.4375 -1.96875 L -2.46875 -1.96875 L -2.46875 -1.90625 Z M -2.390625 -2 C -2.390625 -2.007812 -2.394531 -2.015625 -2.40625 -2.015625 C -2.414062 -2.015625 -2.421875 -2.015625 -2.421875 -2.015625 L -2.453125 -1.984375 C -2.421875 -1.960938 -2.398438 -1.960938 -2.390625 -1.984375 Z M -2.328125 -1.859375 C -2.328125 -1.867188 -2.320312 -1.878906 -2.3125 -1.890625 C -2.332031 -1.910156 -2.351562 -1.921875 -2.375 -1.921875 L -2.390625 -1.921875 L -2.390625 -1.90625 C -2.390625 -1.90625 -2.398438 -1.90625 -2.421875 -1.90625 L -2.40625 -1.890625 L -2.40625 -1.875 L -2.390625 -1.859375 Z M -2.390625 -0.40625 C -2.390625 -0.40625 -2.382812 -0.40625 -2.375 -0.40625 L -2.375 -0.4375 C -2.382812 -0.4375 -2.394531 -0.425781 -2.40625 -0.40625 Z M -2.34375 -2.109375 L -2.359375 -2.109375 L -2.34375 -2.0625 L -2.328125 -2.0625 Z M -2.328125 -1.984375 C -2.328125 -1.953125 -2.316406 -1.9375 -2.296875 -1.9375 C -2.285156 -1.9375 -2.28125 -1.953125 -2.28125 -1.984375 Z M -2.3125 -0.609375 L -2.296875 -0.5625 Z M -2.265625 -1.4375 C -2.265625 -1.4375 -2.273438 -1.445312 -2.296875 -1.46875 L -2.3125 -1.4375 C -2.300781 -1.425781 -2.289062 -1.421875 -2.28125 -1.421875 Z M -2.28125 -2.015625 C -2.269531 -1.992188 -2.253906 -1.984375 -2.234375 -1.984375 L -2.234375 -2.015625 C -2.242188 -2.035156 -2.257812 -2.035156 -2.28125 -2.015625 Z M -2.21875 -1.96875 C -2.226562 -1.96875 -2.238281 -1.957031 -2.25 -1.9375 C -2.25 -1.925781 -2.242188 -1.914062 -2.234375 -1.90625 C -2.234375 -1.90625 -2.226562 -1.90625 -2.21875 -1.90625 C -2.21875 -1.90625 -2.21875 -1.914062 -2.21875 -1.9375 Z M -2.203125 -2.125 C -2.210938 -2.125 -2.21875 -2.117188 -2.21875 -2.109375 L -2.21875 -2.046875 C -2.207031 -2.054688 -2.191406 -2.0625 -2.171875 -2.0625 C -2.171875 -2.070312 -2.171875 -2.082031 -2.171875 -2.09375 L -2.171875 -2.125 Z M -2.125 -1.421875 L -2.125 -1.390625 L -2.109375 -1.390625 L -2.109375 -1.421875 Z M -2.078125 -2.0625 C -2.078125 -2.070312 -2.082031 -2.082031 -2.09375 -2.09375 C -2.101562 -2.101562 -2.109375 -2.109375 -2.109375 -2.109375 C -2.117188 -2.097656 -2.125 -2.078125 -2.125 -2.046875 Z M -2.015625 -1.421875 C -2.003906 -1.421875 -2 -1.421875 -2 -1.421875 L -2 -1.4375 C -2.019531 -1.445312 -2.03125 -1.445312 -2.03125 -1.4375 C -2.03125 -1.425781 -2.023438 -1.421875 -2.015625 -1.421875 Z M -2 -2.046875 C -1.976562 -2.023438 -1.957031 -2.015625 -1.9375 -2.015625 L -1.9375 -2.078125 L -1.984375 -2.0625 Z M -1.9375 -2.078125 L -1.90625 -2.0625 L -1.90625 -2.09375 L -1.921875 -2.109375 Z M -1.875 -2.140625 C -1.875 -2.160156 -1.878906 -2.179688 -1.890625 -2.203125 L -1.90625 -2.140625 C -1.882812 -2.128906 -1.875 -2.128906 -1.875 -2.140625 Z M -1.890625 -2.046875 C -1.898438 -2.023438 -1.898438 -2.003906 -1.890625 -1.984375 C -1.878906 -1.992188 -1.875 -2.007812 -1.875 -2.03125 C -1.875 -2.039062 -1.878906 -2.046875 -1.890625 -2.046875 Z M -1.78125 -1.453125 L -1.765625 -1.4375 L -1.75 -1.453125 Z M -1.515625 -2.15625 C -1.523438 -2.15625 -1.535156 -2.148438 -1.546875 -2.140625 C -1.546875 -2.140625 -1.539062 -2.140625 -1.53125 -2.140625 L -1.53125 -2.125 Z M -1.21875 -2.703125 C -1.21875 -2.703125 -1.226562 -2.703125 -1.25 -2.703125 L -1.25 -2.671875 Z M -1.1875 -2.734375 L -1.1875 -2.703125 L -1.140625 -2.703125 C -1.128906 -2.710938 -1.125 -2.726562 -1.125 -2.75 C -1.132812 -2.738281 -1.148438 -2.734375 -1.171875 -2.734375 Z M -1.046875 -2.765625 L -1.03125 -2.75 L -1.015625 -2.765625 L -1.046875 -2.78125 Z M -0.78125 -2.859375 C -0.800781 -2.859375 -0.8125 -2.847656 -0.8125 -2.828125 C -0.800781 -2.804688 -0.789062 -2.796875 -0.78125 -2.796875 C -0.769531 -2.796875 -0.757812 -2.800781 -0.75 -2.8125 C -0.738281 -2.820312 -0.734375 -2.832031 -0.734375 -2.84375 L -0.75 -2.859375 Z M -0.6875 -2.6875 C -0.6875 -2.695312 -0.6875 -2.707031 -0.6875 -2.71875 C -0.6875 -2.738281 -0.691406 -2.75 -0.703125 -2.75 L -0.734375 -2.71875 C -0.734375 -2.707031 -0.734375 -2.691406 -0.734375 -2.671875 C -0.734375 -2.660156 -0.726562 -2.648438 -0.71875 -2.640625 C -0.71875 -2.628906 -0.710938 -2.625 -0.703125 -2.625 C -0.691406 -2.644531 -0.6875 -2.664062 -0.6875 -2.6875 Z M -0.296875 -0.4375 C -0.296875 -0.457031 -0.304688 -0.46875 -0.328125 -0.46875 L -0.328125 -0.4375 C -0.304688 -0.4375 -0.296875 -0.4375 -0.296875 -0.4375 Z M -0.296875 -0.4375 "/></g></g></g><g fill="#e1d7b7" fill-opacity="1"><g transform="translate(6.23605, 22.280912)"><g><path d="M -0.125 -3.625 C -0.09375 -3.625 -0.0625 -3.609375 -0.03125 -3.578125 C -0.0078125 -3.554688 0 -3.523438 0 -3.484375 L 0 -2.5 C 0 -2.425781 -0.0390625 -2.382812 -0.125 -2.375 L -0.921875 -2.296875 L -0.71875 -1.3125 L -0.125 -1.171875 C -0.0507812 -1.148438 -0.015625 -1.109375 -0.015625 -1.046875 L -0.046875 -0.078125 C -0.046875 -0.0234375 -0.0625 0.0078125 -0.09375 0.03125 C -0.125 0.0507812 -0.160156 0.0546875 -0.203125 0.046875 C -0.617188 -0.0546875 -1.132812 -0.207031 -1.75 -0.40625 C -2.082031 -0.5 -2.457031 -0.628906 -2.875 -0.796875 C -3.257812 -0.953125 -3.753906 -1.160156 -4.359375 -1.421875 C -4.398438 -1.429688 -4.425781 -1.460938 -4.4375 -1.515625 L -4.46875 -1.65625 C -4.488281 -1.78125 -4.503906 -1.878906 -4.515625 -1.953125 C -4.523438 -1.992188 -4.53125 -2.054688 -4.53125 -2.140625 C -4.53125 -2.222656 -4.53125 -2.285156 -4.53125 -2.328125 C -4.507812 -2.535156 -4.359375 -2.703125 -4.078125 -2.828125 C -3.972656 -2.867188 -3.820312 -2.914062 -3.625 -2.96875 C -3.382812 -3.03125 -3.144531 -3.082031 -2.90625 -3.125 L -0.15625 -3.625 Z M -4.25 -1.578125 L -4.28125 -1.578125 L -4.28125 -1.546875 L -4.25 -1.546875 Z M -4.078125 -2.359375 L -4.125 -2.359375 L -4.125 -2.34375 L -4.078125 -2.34375 Z M -3.953125 -2.3125 C -3.972656 -2.320312 -3.992188 -2.328125 -4.015625 -2.328125 C -4.015625 -2.304688 -4.015625 -2.296875 -4.015625 -2.296875 L -3.984375 -2.296875 Z M -3.984375 -1.546875 L -3.90625 -1.546875 C -3.914062 -1.546875 -3.941406 -1.554688 -3.984375 -1.578125 Z M -3.96875 -2.421875 C -3.976562 -2.421875 -3.984375 -2.425781 -3.984375 -2.4375 L -3.984375 -2.359375 L -3.953125 -2.359375 C -3.953125 -2.367188 -3.945312 -2.375 -3.9375 -2.375 L -3.9375 -2.390625 C -3.945312 -2.390625 -3.957031 -2.398438 -3.96875 -2.421875 Z M -3.9375 -2.359375 L -3.953125 -2.359375 L -3.984375 -2.34375 L -3.953125 -2.34375 Z M -3.90625 -2.484375 C -3.90625 -2.472656 -3.890625 -2.457031 -3.859375 -2.4375 L -3.84375 -2.453125 L -3.84375 -2.546875 L -3.859375 -2.5625 C -3.867188 -2.539062 -3.882812 -2.53125 -3.90625 -2.53125 L -3.921875 -2.546875 C -3.910156 -2.515625 -3.90625 -2.492188 -3.90625 -2.484375 Z M -3.734375 -2.46875 C -3.734375 -2.445312 -3.722656 -2.4375 -3.703125 -2.4375 C -3.691406 -2.445312 -3.6875 -2.457031 -3.6875 -2.46875 C -3.6875 -2.476562 -3.679688 -2.488281 -3.671875 -2.5 C -3.679688 -2.507812 -3.691406 -2.515625 -3.703125 -2.515625 L -3.71875 -2.53125 C -3.726562 -2.507812 -3.734375 -2.488281 -3.734375 -2.46875 Z M -3.671875 -1.9375 L -3.6875 -1.9375 L -3.671875 -1.921875 Z M -3.609375 -2.015625 L -3.609375 -2.046875 C -3.597656 -2.046875 -3.59375 -2.046875 -3.59375 -2.046875 C -3.601562 -2.054688 -3.609375 -2.0625 -3.609375 -2.0625 C -3.628906 -2.0625 -3.640625 -2.0625 -3.640625 -2.0625 C -3.640625 -2.050781 -3.640625 -2.039062 -3.640625 -2.03125 L -3.640625 -2 Z M -3.515625 -2.578125 C -3.515625 -2.578125 -3.507812 -2.566406 -3.5 -2.546875 C -3.5 -2.535156 -3.492188 -2.53125 -3.484375 -2.53125 C -3.472656 -2.53125 -3.46875 -2.535156 -3.46875 -2.546875 L -3.46875 -2.59375 C -3.46875 -2.601562 -3.472656 -2.609375 -3.484375 -2.609375 C -3.503906 -2.609375 -3.515625 -2.597656 -3.515625 -2.578125 Z M -3.265625 -1.140625 C -3.273438 -1.140625 -3.269531 -1.128906 -3.25 -1.109375 C -3.238281 -1.097656 -3.234375 -1.09375 -3.234375 -1.09375 C -3.222656 -1.09375 -3.207031 -1.097656 -3.1875 -1.109375 C -3.164062 -1.117188 -3.15625 -1.128906 -3.15625 -1.140625 C -3.175781 -1.140625 -3.195312 -1.140625 -3.21875 -1.140625 C -3.238281 -1.140625 -3.253906 -1.140625 -3.265625 -1.140625 Z M -3.171875 -1.59375 C -3.171875 -1.59375 -3.171875 -1.597656 -3.171875 -1.609375 C -3.171875 -1.617188 -3.175781 -1.625 -3.1875 -1.625 L -3.1875 -1.59375 Z M -3 -1.125 L -3 -1.15625 L -3.078125 -1.15625 L -3.078125 -1.125 Z M -3.046875 -1.90625 C -3.046875 -1.863281 -3.03125 -1.832031 -3 -1.8125 C -2.96875 -1.820312 -2.945312 -1.832031 -2.9375 -1.84375 C -2.9375 -1.863281 -2.941406 -1.882812 -2.953125 -1.90625 L -3.015625 -1.9375 L -3.03125 -1.921875 C -3.03125 -1.921875 -3.035156 -1.914062 -3.046875 -1.90625 Z M -3.03125 -2.609375 L -3.03125 -2.65625 Z M -2.921875 -2.671875 C -2.941406 -2.671875 -2.953125 -2.660156 -2.953125 -2.640625 L -2.9375 -2.625 L -2.921875 -2.640625 Z M -2.203125 -2.109375 C -2.335938 -2.085938 -2.441406 -2.070312 -2.515625 -2.0625 C -2.691406 -2.03125 -2.828125 -2.003906 -2.921875 -1.984375 L -1.875 -1.65625 L -1.890625 -2.140625 Z M -2.828125 -1.828125 L -2.828125 -1.84375 L -2.875 -1.859375 L -2.890625 -1.84375 Z M -2.828125 -2.46875 L -2.859375 -2.46875 L -2.84375 -2.4375 Z M -2.453125 -1.640625 C -2.460938 -1.648438 -2.476562 -1.660156 -2.5 -1.671875 C -2.519531 -1.691406 -2.535156 -1.707031 -2.546875 -1.71875 L -2.59375 -1.734375 L -2.734375 -1.796875 L -2.75 -1.765625 L -2.71875 -1.734375 C -2.707031 -1.710938 -2.703125 -1.703125 -2.703125 -1.703125 C -2.617188 -1.671875 -2.578125 -1.65625 -2.578125 -1.65625 C -2.546875 -1.644531 -2.53125 -1.640625 -2.53125 -1.640625 C -2.519531 -1.640625 -2.507812 -1.628906 -2.5 -1.609375 C -2.5 -1.609375 -2.488281 -1.601562 -2.46875 -1.59375 L -2.3125 -1.546875 L -2.21875 -1.53125 C -2.1875 -1.507812 -2.15625 -1.488281 -2.125 -1.46875 C -2.09375 -1.4375 -2.066406 -1.414062 -2.046875 -1.40625 C -2.023438 -1.40625 -2.007812 -1.40625 -2 -1.40625 C -1.988281 -1.394531 -1.96875 -1.390625 -1.9375 -1.390625 C -1.914062 -1.390625 -1.890625 -1.378906 -1.859375 -1.359375 C -1.816406 -1.335938 -1.789062 -1.328125 -1.78125 -1.328125 C -1.75 -1.328125 -1.734375 -1.328125 -1.734375 -1.328125 C -1.722656 -1.347656 -1.722656 -1.363281 -1.734375 -1.375 C -1.734375 -1.375 -1.738281 -1.378906 -1.75 -1.390625 C -1.789062 -1.410156 -1.828125 -1.421875 -1.859375 -1.421875 C -1.898438 -1.429688 -1.9375 -1.445312 -1.96875 -1.46875 C -1.976562 -1.46875 -1.992188 -1.484375 -2.015625 -1.515625 L -2.09375 -1.53125 C -2.101562 -1.539062 -2.132812 -1.554688 -2.1875 -1.578125 C -2.25 -1.597656 -2.3125 -1.617188 -2.375 -1.640625 Z M -2.609375 -2.546875 L -2.625 -2.5 L -2.59375 -2.5 L -2.59375 -2.546875 Z M -2.546875 -2.671875 L -2.5625 -2.640625 L -2.546875 -2.640625 L -2.53125 -2.671875 Z M -2.515625 -2.359375 C -2.503906 -2.367188 -2.5 -2.375 -2.5 -2.375 C -2.5 -2.382812 -2.503906 -2.390625 -2.515625 -2.390625 Z M -2.28125 -2.703125 C -2.28125 -2.722656 -2.289062 -2.734375 -2.3125 -2.734375 Z M -2.265625 -2.28125 C -2.265625 -2.28125 -2.269531 -2.273438 -2.28125 -2.265625 L -2.296875 -2.25 L -2.265625 -2.25 Z M -2.203125 -2.515625 C -2.234375 -2.515625 -2.253906 -2.488281 -2.265625 -2.4375 C -2.265625 -2.425781 -2.25 -2.421875 -2.21875 -2.421875 L -2.21875 -2.46875 C -2.207031 -2.4375 -2.195312 -2.429688 -2.1875 -2.453125 L -2.1875 -2.515625 Z M -2.234375 -2.6875 C -2.234375 -2.71875 -2.238281 -2.734375 -2.25 -2.734375 C -2.25 -2.722656 -2.25 -2.71875 -2.25 -2.71875 C -2.257812 -2.71875 -2.265625 -2.71875 -2.265625 -2.71875 L -2.265625 -2.703125 C -2.265625 -2.691406 -2.257812 -2.6875 -2.25 -2.6875 Z M -2.234375 -2.609375 C -2.222656 -2.617188 -2.21875 -2.625 -2.21875 -2.625 L -2.25 -2.640625 C -2.25 -2.640625 -2.25 -2.625 -2.25 -2.59375 Z M -2.171875 -2.6875 C -2.160156 -2.707031 -2.15625 -2.722656 -2.15625 -2.734375 C -2.15625 -2.753906 -2.160156 -2.773438 -2.171875 -2.796875 C -2.191406 -2.773438 -2.203125 -2.757812 -2.203125 -2.75 L -2.203125 -2.6875 Z M -2.09375 -2.515625 C -2.09375 -2.535156 -2.085938 -2.546875 -2.078125 -2.546875 L -2.078125 -2.59375 L -2.109375 -2.59375 L -2.125 -2.5625 C -2.125 -2.5625 -2.125 -2.554688 -2.125 -2.546875 C -2.113281 -2.523438 -2.101562 -2.515625 -2.09375 -2.515625 Z M -2.109375 -2.25 L -2.09375 -2.25 L -2.09375 -2.296875 L -2.109375 -2.296875 Z M -2.078125 -2.828125 C -2.097656 -2.828125 -2.109375 -2.820312 -2.109375 -2.8125 L -2.109375 -2.75 C -2.085938 -2.71875 -2.070312 -2.695312 -2.0625 -2.6875 C -2.0625 -2.675781 -2.0625 -2.671875 -2.0625 -2.671875 C -2.039062 -2.671875 -2 -2.691406 -1.9375 -2.734375 L -1.9375 -2.84375 C -1.96875 -2.832031 -1.984375 -2.816406 -1.984375 -2.796875 C -1.984375 -2.785156 -1.992188 -2.765625 -2.015625 -2.734375 C -2.023438 -2.765625 -2.035156 -2.78125 -2.046875 -2.78125 C -2.054688 -2.789062 -2.066406 -2.804688 -2.078125 -2.828125 Z M -2.09375 -1.234375 L -2.03125 -1.21875 C -2.007812 -1.21875 -1.992188 -1.222656 -1.984375 -1.234375 C -2.003906 -1.242188 -2.023438 -1.25 -2.046875 -1.25 L -2.09375 -1.25 Z M -2.0625 -2.53125 L -2.0625 -2.46875 L -2.046875 -2.46875 L -2.015625 -2.5 L -2.03125 -2.515625 L -2.03125 -2.53125 Z M -2.015625 -2.609375 C -2.015625 -2.609375 -2.015625 -2.601562 -2.015625 -2.59375 C -2.023438 -2.59375 -2.03125 -2.59375 -2.03125 -2.59375 L -1.953125 -2.59375 C -1.972656 -2.613281 -1.992188 -2.625 -2.015625 -2.625 Z M -1.984375 -2.453125 C -1.992188 -2.441406 -1.992188 -2.429688 -1.984375 -2.421875 C -1.984375 -2.410156 -1.984375 -2.398438 -1.984375 -2.390625 L -1.953125 -2.421875 C -1.960938 -2.421875 -1.96875 -2.429688 -1.96875 -2.453125 L -1.953125 -2.5 C -1.953125 -2.507812 -1.957031 -2.519531 -1.96875 -2.53125 C -1.976562 -2.539062 -1.984375 -2.546875 -1.984375 -2.546875 Z M -1.921875 -2.390625 L -1.90625 -2.375 L -1.890625 -2.390625 Z M -1.828125 -2.46875 C -1.828125 -2.476562 -1.832031 -2.484375 -1.84375 -2.484375 L -1.859375 -2.4375 L -1.84375 -2.421875 L -1.828125 -2.421875 L -1.8125 -2.46875 C -1.820312 -2.46875 -1.828125 -2.46875 -1.828125 -2.46875 Z M -1.828125 -2.375 C -1.828125 -2.382812 -1.832031 -2.390625 -1.84375 -2.390625 Z M -1.75 -2.734375 C -1.757812 -2.734375 -1.769531 -2.726562 -1.78125 -2.71875 L -1.78125 -2.703125 C -1.78125 -2.691406 -1.773438 -2.6875 -1.765625 -2.6875 Z M -1.65625 -2.671875 C -1.664062 -2.671875 -1.679688 -2.671875 -1.703125 -2.671875 C -1.722656 -2.660156 -1.734375 -2.65625 -1.734375 -2.65625 C -1.765625 -2.613281 -1.78125 -2.578125 -1.78125 -2.546875 C -1.769531 -2.546875 -1.765625 -2.550781 -1.765625 -2.5625 C -1.753906 -2.582031 -1.734375 -2.597656 -1.703125 -2.609375 L -1.65625 -2.609375 Z M -1.734375 -2.328125 L -1.703125 -2.328125 L -1.703125 -2.34375 L -1.734375 -2.34375 Z M -1.65625 -2.953125 L -1.65625 -2.90625 Z M -1.609375 -2.46875 L -1.609375 -2.5 L -1.65625 -2.5 L -1.65625 -2.46875 Z M -1.59375 -2.328125 L -1.609375 -2.328125 L -1.609375 -2.3125 L -1.59375 -2.3125 Z M -1.578125 -2.078125 L -1.5625 -2.078125 L -1.5625 -2.109375 L -1.578125 -2.109375 Z M -1.46875 -2.25 C -1.46875 -2.257812 -1.476562 -2.265625 -1.5 -2.265625 C -1.5 -2.253906 -1.492188 -2.238281 -1.484375 -2.21875 L -1.484375 -2.234375 Z M -1.453125 -2.46875 C -1.429688 -2.445312 -1.421875 -2.4375 -1.421875 -2.4375 C -1.410156 -2.457031 -1.40625 -2.476562 -1.40625 -2.5 C -1.425781 -2.53125 -1.441406 -2.546875 -1.453125 -2.546875 C -1.453125 -2.546875 -1.460938 -2.539062 -1.484375 -2.53125 C -1.484375 -2.507812 -1.488281 -2.5 -1.5 -2.5 Z M -1.265625 -2.609375 L -1.265625 -2.640625 L -1.28125 -2.640625 L -1.28125 -2.609375 Z M -1.265625 -2.515625 C -1.242188 -2.515625 -1.226562 -2.53125 -1.21875 -2.5625 L -1.265625 -2.5625 Z M -1.21875 -2.78125 C -1.21875 -2.78125 -1.207031 -2.785156 -1.1875 -2.796875 C -1.175781 -2.804688 -1.171875 -2.816406 -1.171875 -2.828125 C -1.171875 -2.859375 -1.171875 -2.875 -1.171875 -2.875 C -1.171875 -2.875 -1.171875 -2.882812 -1.171875 -2.90625 C -1.179688 -2.90625 -1.1875 -2.898438 -1.1875 -2.890625 L -1.21875 -2.875 C -1.21875 -2.863281 -1.234375 -2.859375 -1.265625 -2.859375 C -1.253906 -2.859375 -1.25 -2.847656 -1.25 -2.828125 Z M -1.21875 -1.3125 L -1.1875 -1.3125 L -1.1875 -1.375 L -1.21875 -1.375 Z M -1.09375 -1.21875 C -1.113281 -1.21875 -1.125 -1.21875 -1.125 -1.21875 C -1.15625 -1.164062 -1.171875 -1.132812 -1.171875 -1.125 C -1.171875 -1.101562 -1.160156 -1.085938 -1.140625 -1.078125 C -1.128906 -1.066406 -1.117188 -1.0625 -1.109375 -1.0625 C -1.097656 -1.0625 -1.082031 -1.070312 -1.0625 -1.09375 C -1.050781 -1.113281 -1.046875 -1.132812 -1.046875 -1.15625 C -1.046875 -1.164062 -1.046875 -1.171875 -1.046875 -1.171875 L -1.046875 -1.234375 Z M -1.171875 -2.328125 L -1.140625 -2.328125 L -1.140625 -2.34375 L -1.171875 -2.34375 Z M -1.140625 -3.078125 L -1.15625 -3.078125 L -1.15625 -3.046875 L -1.140625 -3.046875 Z M -1.140625 -2.40625 C -1.128906 -2.414062 -1.125 -2.421875 -1.125 -2.421875 L -1.125 -2.5 L -1.140625 -2.5 Z M -1.125 -2.078125 L -1.125 -2.0625 L -1.109375 -2.0625 L -1.125 -2.09375 Z M -0.234375 -3.171875 C -0.234375 -3.179688 -0.238281 -3.191406 -0.25 -3.203125 L -0.40625 -3.1875 L -0.5625 -3.15625 L -0.59375 -3.125 L -0.625 -3.109375 C -0.632812 -3.109375 -0.648438 -3.125 -0.671875 -3.15625 C -0.691406 -3.113281 -0.710938 -3.09375 -0.734375 -3.09375 C -0.753906 -3.101562 -0.769531 -3.109375 -0.78125 -3.109375 C -0.8125 -3.109375 -0.84375 -3.097656 -0.875 -3.078125 C -0.894531 -3.066406 -0.910156 -3.0625 -0.921875 -3.0625 C -0.929688 -3.0625 -0.9375 -3.066406 -0.9375 -3.078125 C -0.9375 -3.085938 -0.945312 -3.09375 -0.96875 -3.09375 C -0.976562 -3.09375 -1 -3.085938 -1.03125 -3.078125 L -0.984375 -3.03125 L -0.953125 -2.984375 L -0.96875 -2.953125 L -1.03125 -2.953125 C -1.050781 -2.953125 -1.0625 -2.972656 -1.0625 -3.015625 L -1.046875 -3.046875 L -1.09375 -3.046875 C -1.101562 -3.035156 -1.109375 -3.015625 -1.109375 -2.984375 C -1.117188 -2.960938 -1.125 -2.953125 -1.125 -2.953125 C -1.125 -2.921875 -1.117188 -2.890625 -1.109375 -2.859375 C -1.097656 -2.835938 -1.082031 -2.828125 -1.0625 -2.828125 C -1.050781 -2.828125 -1.046875 -2.828125 -1.046875 -2.828125 L -1.015625 -2.859375 C -1.003906 -2.847656 -0.988281 -2.847656 -0.96875 -2.859375 L -0.953125 -2.890625 C -0.953125 -2.890625 -0.945312 -2.890625 -0.9375 -2.890625 C -0.9375 -2.898438 -0.9375 -2.90625 -0.9375 -2.90625 C -0.925781 -2.882812 -0.921875 -2.867188 -0.921875 -2.859375 C -0.921875 -2.816406 -0.910156 -2.796875 -0.890625 -2.796875 C -0.859375 -2.785156 -0.84375 -2.78125 -0.84375 -2.78125 C -0.851562 -2.789062 -0.851562 -2.800781 -0.84375 -2.8125 C -0.84375 -2.820312 -0.835938 -2.828125 -0.828125 -2.828125 C -0.816406 -2.828125 -0.8125 -2.820312 -0.8125 -2.8125 C -0.8125 -2.800781 -0.8125 -2.796875 -0.8125 -2.796875 C -0.800781 -2.796875 -0.796875 -2.796875 -0.796875 -2.796875 L -0.765625 -2.78125 L -0.703125 -2.78125 C -0.703125 -2.78125 -0.691406 -2.800781 -0.671875 -2.84375 C -0.648438 -2.882812 -0.632812 -2.890625 -0.625 -2.859375 C -0.613281 -2.867188 -0.609375 -2.894531 -0.609375 -2.9375 C -0.609375 -2.945312 -0.613281 -2.957031 -0.625 -2.96875 L -0.625 -3 L -0.53125 -3 L -0.53125 -2.984375 L -0.5 -3.015625 C -0.488281 -3.023438 -0.484375 -3.03125 -0.484375 -3.03125 C -0.472656 -3.03125 -0.46875 -3.035156 -0.46875 -3.046875 C -0.46875 -3.046875 -0.460938 -3.050781 -0.453125 -3.0625 L -0.390625 -3.078125 C -0.367188 -3.078125 -0.351562 -3.085938 -0.34375 -3.109375 C -0.332031 -3.109375 -0.328125 -3.109375 -0.328125 -3.109375 L -0.3125 -3.109375 C -0.300781 -3.109375 -0.285156 -3.113281 -0.265625 -3.125 C -0.242188 -3.144531 -0.234375 -3.160156 -0.234375 -3.171875 Z M -1.015625 -0.703125 C -1.035156 -0.722656 -1.046875 -0.71875 -1.046875 -0.6875 L -1.03125 -0.6875 Z M -0.921875 -0.984375 C -0.921875 -0.992188 -0.929688 -0.992188 -0.953125 -0.984375 C -0.941406 -0.972656 -0.929688 -0.96875 -0.921875 -0.96875 C -0.910156 -0.96875 -0.90625 -0.972656 -0.90625 -0.984375 C -0.90625 -0.984375 -0.910156 -0.984375 -0.921875 -0.984375 Z M -0.84375 -2.734375 C -0.84375 -2.734375 -0.851562 -2.734375 -0.875 -2.734375 L -0.875 -2.6875 C -0.851562 -2.6875 -0.84375 -2.691406 -0.84375 -2.703125 C -0.84375 -2.703125 -0.835938 -2.707031 -0.828125 -2.71875 C -0.835938 -2.71875 -0.84375 -2.71875 -0.84375 -2.71875 C -0.84375 -2.71875 -0.84375 -2.722656 -0.84375 -2.734375 Z M -0.796875 -0.828125 L -0.8125 -0.84375 L -0.84375 -0.84375 C -0.851562 -0.84375 -0.859375 -0.832031 -0.859375 -0.8125 L -0.84375 -0.796875 C -0.84375 -0.796875 -0.84375 -0.789062 -0.84375 -0.78125 L -0.8125 -0.78125 Z M -0.84375 -2.421875 L -0.828125 -2.421875 L -0.828125 -2.46875 L -0.84375 -2.46875 Z M -0.765625 -2.59375 C -0.785156 -2.59375 -0.796875 -2.582031 -0.796875 -2.5625 C -0.796875 -2.550781 -0.796875 -2.546875 -0.796875 -2.546875 L -0.765625 -2.546875 Z M -0.6875 -0.8125 C -0.695312 -0.8125 -0.703125 -0.8125 -0.703125 -0.8125 C -0.710938 -0.820312 -0.71875 -0.828125 -0.71875 -0.828125 L -0.734375 -0.875 L -0.765625 -0.875 C -0.765625 -0.863281 -0.765625 -0.859375 -0.765625 -0.859375 L -0.796875 -0.828125 C -0.753906 -0.816406 -0.734375 -0.785156 -0.734375 -0.734375 C -0.722656 -0.734375 -0.710938 -0.738281 -0.703125 -0.75 C -0.691406 -0.757812 -0.6875 -0.769531 -0.6875 -0.78125 C -0.6875 -0.789062 -0.6875 -0.800781 -0.6875 -0.8125 Z M -0.734375 -2.5 C -0.734375 -2.488281 -0.734375 -2.476562 -0.734375 -2.46875 L -0.6875 -2.484375 L -0.703125 -2.546875 Z M -0.5625 -1.0625 C -0.5625 -1.070312 -0.570312 -1.078125 -0.59375 -1.078125 L -0.609375 -1.0625 C -0.609375 -1.050781 -0.601562 -1.046875 -0.59375 -1.046875 L -0.59375 -1.015625 L -0.5625 -1.046875 Z M -0.53125 -0.796875 C -0.53125 -0.785156 -0.53125 -0.773438 -0.53125 -0.765625 C -0.539062 -0.765625 -0.546875 -0.757812 -0.546875 -0.75 C -0.546875 -0.726562 -0.539062 -0.71875 -0.53125 -0.71875 C -0.519531 -0.71875 -0.519531 -0.726562 -0.53125 -0.75 Z M -0.5 -0.875 C -0.507812 -0.882812 -0.515625 -0.890625 -0.515625 -0.890625 C -0.535156 -0.890625 -0.546875 -0.882812 -0.546875 -0.875 C -0.535156 -0.84375 -0.53125 -0.828125 -0.53125 -0.828125 Z M -0.5 -2.625 C -0.507812 -2.625 -0.519531 -2.613281 -0.53125 -2.59375 L -0.515625 -2.5625 L -0.5 -2.546875 Z M -0.1875 -2.6875 C -0.195312 -2.695312 -0.203125 -2.703125 -0.203125 -2.703125 C -0.222656 -2.679688 -0.242188 -2.671875 -0.265625 -2.671875 L -0.265625 -2.609375 C -0.242188 -2.617188 -0.222656 -2.628906 -0.203125 -2.640625 C -0.191406 -2.660156 -0.179688 -2.675781 -0.171875 -2.6875 Z M -0.1875 -2.6875 "/></g></g></g><g fill="#e1d7b7" fill-opacity="1"><g transform="translate(6.23605, 16.364886)"><g><path d="M -4.5 -3.15625 C -4.5 -3.195312 -4.484375 -3.226562 -4.453125 -3.25 C -4.429688 -3.269531 -4.398438 -3.28125 -4.359375 -3.28125 C -3.628906 -3.21875 -2.953125 -3.175781 -2.328125 -3.15625 C -2.265625 -3.15625 -2.164062 -3.15625 -2.03125 -3.15625 L -1.734375 -3.15625 L -1.734375 -3.109375 C -1.734375 -3.085938 -1.734375 -3.078125 -1.734375 -3.078125 C -1.734375 -3.066406 -1.734375 -3.035156 -1.734375 -2.984375 L -1.71875 -3 L -1.703125 -2.984375 L -1.703125 -3.03125 C -1.703125 -3.03125 -1.703125 -3.050781 -1.703125 -3.09375 L -1.703125 -3.140625 C -1.703125 -3.148438 -1.703125 -3.15625 -1.703125 -3.15625 L -1.6875 -3.15625 L -1.6875 -3.109375 L -1.671875 -3.125 L -1.65625 -3.109375 L -1.65625 -3.15625 C -1.332031 -3.144531 -0.835938 -3.140625 -0.171875 -3.140625 C -0.0859375 -3.140625 -0.046875 -3.097656 -0.046875 -3.015625 L -0.015625 -2.140625 C -0.015625 -2.085938 -0.046875 -2.046875 -0.109375 -2.015625 L -0.375 -1.921875 L -0.390625 -1.921875 L -0.390625 -1.90625 L -1.765625 -1.390625 C -1.773438 -1.429688 -1.789062 -1.457031 -1.8125 -1.46875 L -1.796875 -1.4375 L -1.8125 -1.421875 L -1.796875 -1.390625 L -1.796875 -1.375 L -2.453125 -1.125 L -0.125 -1.09375 C -0.0390625 -1.082031 0 -1.035156 0 -0.953125 L 0 -0.0625 C 0 -0.0195312 -0.0078125 0.0078125 -0.03125 0.03125 C -0.0625 0.0507812 -0.0976562 0.0625 -0.140625 0.0625 C -0.367188 0.0507812 -0.691406 0.0351562 -1.109375 0.015625 L -1.265625 0 C -2.085938 -0.0390625 -2.671875 -0.078125 -3.015625 -0.109375 L -4.375 -0.21875 C -4.457031 -0.226562 -4.5 -0.273438 -4.5 -0.359375 L -4.53125 -0.984375 C -4.53125 -1.117188 -4.488281 -1.238281 -4.40625 -1.34375 C -4.332031 -1.445312 -4.226562 -1.523438 -4.09375 -1.578125 L -4.078125 -1.59375 L -2.671875 -2.140625 L -4.40625 -2.234375 C -4.488281 -2.234375 -4.53125 -2.28125 -4.53125 -2.375 Z M -3.59375 -0.765625 C -3.59375 -0.753906 -3.582031 -0.742188 -3.5625 -0.734375 L -3.546875 -0.765625 C -3.566406 -0.765625 -3.582031 -0.765625 -3.59375 -0.765625 Z M -3.25 -0.6875 L -3.265625 -0.6875 L -3.265625 -0.640625 L -3.25 -0.640625 Z M -3.21875 -0.78125 C -3.226562 -0.800781 -3.242188 -0.8125 -3.265625 -0.8125 L -3.265625 -0.765625 L -3.234375 -0.765625 C -3.222656 -0.773438 -3.21875 -0.78125 -3.21875 -0.78125 Z M -3.21875 -1.09375 C -3.238281 -1.070312 -3.253906 -1.054688 -3.265625 -1.046875 C -3.242188 -1.046875 -3.222656 -1.050781 -3.203125 -1.0625 L -3.21875 -1.078125 Z M -3.171875 -0.9375 C -3.171875 -0.957031 -3.175781 -0.976562 -3.1875 -1 L -3.203125 -1 L -3.203125 -0.890625 L -3.234375 -0.890625 L -3.234375 -0.828125 L -3.203125 -0.828125 L -3.203125 -0.890625 L -3.1875 -0.890625 L -3.1875 -0.921875 C -3.175781 -0.921875 -3.171875 -0.925781 -3.171875 -0.9375 Z M -3.171875 -1.046875 L -3.1875 -1.046875 L -3.203125 -1 L -3.1875 -1 Z M -3.15625 -1.09375 C -3.15625 -1.113281 -3.164062 -1.128906 -3.1875 -1.140625 C -3.195312 -1.117188 -3.203125 -1.101562 -3.203125 -1.09375 C -3.191406 -1.082031 -3.1875 -1.082031 -3.1875 -1.09375 Z M -3.15625 -0.875 C -3.132812 -0.882812 -3.128906 -0.898438 -3.140625 -0.921875 C -3.148438 -0.910156 -3.15625 -0.894531 -3.15625 -0.875 Z M -2.8125 -0.765625 L -2.78125 -0.765625 L -2.78125 -0.828125 L -2.8125 -0.828125 Z M -2.71875 -1.046875 L -2.71875 -1.125 L -2.75 -1.125 L -2.75 -1.046875 Z M -2.546875 -1.140625 C -2.554688 -1.140625 -2.566406 -1.125 -2.578125 -1.09375 C -2.546875 -1.101562 -2.523438 -1.113281 -2.515625 -1.125 Z M -2.5625 -1.609375 C -2.539062 -1.609375 -2.523438 -1.601562 -2.515625 -1.59375 C -2.515625 -1.59375 -2.515625 -1.578125 -2.515625 -1.546875 L -2.5 -1.5625 L -2.546875 -1.640625 Z M -2.515625 -1.0625 L -2.546875 -1.0625 L -2.546875 -1.015625 L -2.515625 -1.015625 Z M -2.46875 -1.515625 L -2.5 -1.515625 L -2.5 -1.484375 L -2.46875 -1.484375 Z M -2.484375 -0.890625 C -2.460938 -0.910156 -2.453125 -0.925781 -2.453125 -0.9375 C -2.453125 -0.945312 -2.460938 -0.957031 -2.484375 -0.96875 Z M -2.453125 -1.59375 C -2.453125 -1.59375 -2.457031 -1.59375 -2.46875 -1.59375 L -2.46875 -1.578125 L -2.453125 -1.578125 L -2.421875 -1.59375 Z M -2.46875 -1.171875 C -2.445312 -1.210938 -2.445312 -1.242188 -2.46875 -1.265625 Z M -2.40625 -1.03125 L -2.390625 -1.03125 L -2.390625 -1.09375 L -2.40625 -1.09375 Z M -2.34375 -0.828125 C -2.351562 -0.828125 -2.367188 -0.820312 -2.390625 -0.8125 C -2.390625 -0.78125 -2.382812 -0.757812 -2.375 -0.75 L -2.34375 -0.75 Z M -2.34375 -1.625 L -2.34375 -1.65625 L -2.375 -1.65625 L -2.375 -1.625 Z M -2.28125 -1.578125 L -2.296875 -1.578125 L -2.296875 -1.53125 L -2.28125 -1.53125 Z M -2.28125 -2.15625 L -2.296875 -2.171875 L -2.296875 -2.15625 Z M -2.234375 -0.78125 C -2.242188 -0.800781 -2.25 -0.8125 -2.25 -0.8125 C -2.269531 -0.8125 -2.28125 -0.789062 -2.28125 -0.75 L -2.25 -0.75 Z M -2.21875 -0.875 L -2.25 -0.875 L -2.25 -0.828125 L -2.21875 -0.828125 Z M -2.171875 -1.640625 C -2.203125 -1.628906 -2.226562 -1.625 -2.25 -1.625 C -2.25 -1.625 -2.242188 -1.617188 -2.234375 -1.609375 L -2.203125 -1.578125 L -2.1875 -1.578125 C -2.1875 -1.578125 -2.179688 -1.578125 -2.171875 -1.578125 Z M -2.140625 -1.390625 C -2.140625 -1.390625 -2.140625 -1.382812 -2.140625 -1.375 C -2.140625 -1.375 -2.144531 -1.367188 -2.15625 -1.359375 C -2.15625 -1.347656 -2.148438 -1.34375 -2.140625 -1.34375 L -2.125 -1.34375 L -2.125 -1.390625 Z M -2.140625 -0.796875 C -2.117188 -0.773438 -2.101562 -0.765625 -2.09375 -0.765625 L -2.09375 -0.828125 Z M -2.140625 -2.5 L -2.109375 -2.5 Z M -2.078125 -0.953125 L -2.015625 -0.953125 L -2.015625 -1 L -2.078125 -1 Z M -2.0625 -0.65625 L -2.015625 -0.65625 L -2.015625 -0.703125 L -2.0625 -0.703125 Z M -1.96875 -1.65625 C -1.9375 -1.65625 -1.921875 -1.675781 -1.921875 -1.71875 L -1.96875 -1.71875 Z M -1.875 -1.875 C -1.894531 -1.832031 -1.90625 -1.800781 -1.90625 -1.78125 C -1.882812 -1.78125 -1.867188 -1.796875 -1.859375 -1.828125 C -1.867188 -1.835938 -1.875 -1.847656 -1.875 -1.859375 Z M -1.828125 -1.640625 L -1.875 -1.65625 L -1.875 -1.625 L -1.84375 -1.609375 Z M -1.859375 -1.65625 L -1.84375 -1.65625 L -1.859375 -1.734375 L -1.875 -1.734375 Z M -1.84375 -2.34375 L -1.875 -2.359375 L -1.875 -2.34375 L -1.859375 -2.3125 Z M -1.828125 -1.890625 L -1.859375 -1.875 L -1.84375 -1.828125 L -1.8125 -1.828125 Z M -1.78125 -0.5625 C -1.78125 -0.59375 -1.785156 -0.613281 -1.796875 -0.625 L -1.84375 -0.609375 C -1.820312 -0.578125 -1.800781 -0.5625 -1.78125 -0.5625 Z M -1.8125 -1.578125 C -1.820312 -1.566406 -1.832031 -1.550781 -1.84375 -1.53125 C -1.820312 -1.53125 -1.8125 -1.519531 -1.8125 -1.5 C -1.8125 -1.5 -1.8125 -1.503906 -1.8125 -1.515625 L -1.78125 -1.546875 L -1.796875 -1.578125 Z M -1.796875 -0.703125 L -1.765625 -0.703125 L -1.78125 -0.765625 L -1.8125 -0.75 Z M -1.703125 -0.78125 C -1.722656 -0.75 -1.734375 -0.734375 -1.734375 -0.734375 L -1.75 -0.703125 L -1.765625 -0.640625 L -1.703125 -0.65625 Z M -1.640625 -1.671875 C -1.660156 -1.660156 -1.671875 -1.644531 -1.671875 -1.625 C -1.671875 -1.625 -1.664062 -1.625 -1.65625 -1.625 C -1.65625 -1.632812 -1.65625 -1.640625 -1.65625 -1.640625 Z M -1.640625 -2.3125 C -1.617188 -2.320312 -1.609375 -2.332031 -1.609375 -2.34375 C -1.609375 -2.351562 -1.617188 -2.351562 -1.640625 -2.34375 Z M -1.59375 -1.671875 L -1.59375 -1.6875 C -1.59375 -1.6875 -1.597656 -1.691406 -1.609375 -1.703125 L -1.609375 -1.71875 L -1.625 -1.65625 L -1.59375 -1.65625 Z M -1.578125 -1.953125 L -1.625 -1.9375 L -1.609375 -1.921875 L -1.578125 -1.921875 Z M -1.578125 -0.828125 L -1.609375 -0.828125 L -1.609375 -0.765625 L -1.578125 -0.765625 Z M -1.515625 -1.71875 L -1.5 -1.75 L -1.53125 -1.765625 L -1.53125 -1.734375 Z M -1.53125 -0.796875 L -1.484375 -0.796875 L -1.484375 -0.84375 L -1.53125 -0.84375 Z M -1.484375 -1.640625 C -1.484375 -1.628906 -1.476562 -1.617188 -1.46875 -1.609375 C -1.457031 -1.609375 -1.453125 -1.613281 -1.453125 -1.625 L -1.453125 -1.671875 Z M -1.421875 -1.921875 C -1.421875 -1.910156 -1.421875 -1.90625 -1.421875 -1.90625 L -1.421875 -1.890625 C -1.410156 -1.890625 -1.394531 -1.894531 -1.375 -1.90625 L -1.328125 -1.9375 C -1.335938 -1.957031 -1.347656 -1.972656 -1.359375 -1.984375 C -1.367188 -1.984375 -1.375 -1.988281 -1.375 -2 C -1.382812 -2.007812 -1.394531 -2.019531 -1.40625 -2.03125 L -1.390625 -1.984375 L -1.390625 -1.96875 L -1.375 -1.953125 C -1.382812 -1.941406 -1.394531 -1.9375 -1.40625 -1.9375 C -1.414062 -1.9375 -1.421875 -1.929688 -1.421875 -1.921875 Z M -1.390625 -1.75 L -1.421875 -1.734375 L -1.40625 -1.703125 L -1.375 -1.703125 Z M -1.375 -0.765625 C -1.375 -0.734375 -1.375 -0.71875 -1.375 -0.71875 C -1.363281 -0.707031 -1.351562 -0.703125 -1.34375 -0.703125 L -1.328125 -0.75 L -1.359375 -0.765625 Z M -1.328125 -2.03125 L -1.328125 -1.96875 C -1.328125 -1.957031 -1.328125 -1.945312 -1.328125 -1.9375 C -1.304688 -1.9375 -1.296875 -1.945312 -1.296875 -1.96875 L -1.296875 -1.984375 C -1.304688 -1.992188 -1.3125 -2 -1.3125 -2 L -1.3125 -2.0625 L -1.328125 -2.109375 L -1.34375 -2.09375 L -1.328125 -2.046875 Z M -1.265625 -2.140625 L -1.28125 -2.171875 L -1.328125 -2.15625 L -1.3125 -2.125 Z M -1.296875 -1.65625 C -1.285156 -1.664062 -1.285156 -1.679688 -1.296875 -1.703125 C -1.304688 -1.691406 -1.3125 -1.675781 -1.3125 -1.65625 Z M -1.265625 -1.03125 L -1.234375 -1.03125 L -1.234375 -1.078125 L -1.265625 -1.078125 Z M -1.21875 -1.984375 C -1.207031 -2.003906 -1.207031 -2.03125 -1.21875 -2.0625 L -1.234375 -2.0625 C -1.242188 -2.0625 -1.253906 -2.050781 -1.265625 -2.03125 L -1.25 -1.984375 Z M -1.21875 -1.796875 L -1.25 -1.796875 L -1.25 -1.78125 L -1.21875 -1.78125 Z M -1.203125 -1.9375 C -1.210938 -1.9375 -1.21875 -1.929688 -1.21875 -1.921875 C -1.21875 -1.910156 -1.222656 -1.898438 -1.234375 -1.890625 L -1.234375 -1.859375 L -1.1875 -1.890625 Z M -1.109375 -2.3125 C -1.097656 -2.34375 -1.09375 -2.359375 -1.09375 -2.359375 C -1.101562 -2.367188 -1.109375 -2.375 -1.109375 -2.375 C -1.117188 -2.375 -1.128906 -2.367188 -1.140625 -2.359375 Z M -1.015625 -2.0625 L -1.03125 -2.09375 L -1.125 -2.0625 L -1.109375 -2.03125 Z M -1.109375 -1.78125 L -1.078125 -1.78125 L -1.078125 -1.8125 L -1.109375 -1.8125 Z M -1.015625 -1.8125 C -1.023438 -1.800781 -1.039062 -1.800781 -1.0625 -1.8125 L -1.046875 -1.75 C -1.035156 -1.75 -1.03125 -1.757812 -1.03125 -1.78125 C -1.03125 -1.78125 -1.03125 -1.785156 -1.03125 -1.796875 Z M -0.921875 -2.25 C -0.910156 -2.257812 -0.90625 -2.265625 -0.90625 -2.265625 L -0.921875 -2.328125 C -0.941406 -2.273438 -0.960938 -2.242188 -0.984375 -2.234375 L -1.015625 -2.234375 C -1.015625 -2.242188 -1.015625 -2.25 -1.015625 -2.25 L -1.03125 -2.234375 L -1.015625 -2.203125 C -1.015625 -2.203125 -1.007812 -2.191406 -1 -2.171875 L -0.96875 -2.140625 L -0.96875 -2.21875 C -0.945312 -2.226562 -0.929688 -2.238281 -0.921875 -2.25 Z M -0.96875 -2.015625 C -0.976562 -2.015625 -0.988281 -2.003906 -1 -1.984375 L -0.9375 -2 Z M -0.84375 -2.109375 C -0.851562 -2.140625 -0.859375 -2.160156 -0.859375 -2.171875 L -0.890625 -2.203125 L -0.890625 -2.21875 L -0.9375 -2.1875 L -0.9375 -2.171875 L -0.953125 -2.140625 C -0.941406 -2.140625 -0.929688 -2.140625 -0.921875 -2.140625 C -0.921875 -2.140625 -0.914062 -2.140625 -0.90625 -2.140625 C -0.90625 -2.148438 -0.90625 -2.15625 -0.90625 -2.15625 L -0.890625 -2.15625 C -0.890625 -2.164062 -0.882812 -2.164062 -0.875 -2.15625 C -0.875 -2.15625 -0.867188 -2.148438 -0.859375 -2.140625 C -0.859375 -2.128906 -0.851562 -2.117188 -0.84375 -2.109375 Z M -0.9375 -0.71875 L -0.890625 -0.71875 L -0.890625 -0.765625 L -0.9375 -0.765625 Z M -0.8125 -1.9375 L -0.796875 -1.96875 L -0.875 -2.109375 C -0.863281 -2.085938 -0.859375 -2.0625 -0.859375 -2.03125 C -0.847656 -2.019531 -0.84375 -2.003906 -0.84375 -1.984375 C -0.84375 -1.953125 -0.835938 -1.929688 -0.828125 -1.921875 Z M -0.875 -2.4375 C -0.851562 -2.4375 -0.835938 -2.429688 -0.828125 -2.421875 C -0.828125 -2.421875 -0.828125 -2.40625 -0.828125 -2.375 L -0.8125 -2.390625 L -0.875 -2.46875 Z M -0.828125 -0.765625 C -0.835938 -0.804688 -0.847656 -0.832031 -0.859375 -0.84375 C -0.867188 -0.820312 -0.875 -0.796875 -0.875 -0.765625 Z M -0.71875 -2.328125 L -0.703125 -2.359375 L -0.75 -2.375 L -0.75 -2.34375 Z M -0.734375 -0.84375 L -0.6875 -0.84375 L -0.6875 -0.921875 L -0.734375 -0.921875 Z M -0.71875 -2.203125 L -0.6875 -2.171875 L -0.671875 -2.1875 C -0.671875 -2.1875 -0.664062 -2.1875 -0.65625 -2.1875 L -0.671875 -2.25 Z M -0.6875 -2.28125 C -0.664062 -2.269531 -0.65625 -2.273438 -0.65625 -2.296875 C -0.65625 -2.304688 -0.65625 -2.3125 -0.65625 -2.3125 L -0.671875 -2.3125 C -0.671875 -2.300781 -0.675781 -2.289062 -0.6875 -2.28125 Z M -0.625 -2.359375 C -0.625 -2.359375 -0.625 -2.351562 -0.625 -2.34375 L -0.625 -2.328125 L -0.578125 -2.296875 L -0.578125 -2.3125 L -0.609375 -2.34375 C -0.617188 -2.351562 -0.617188 -2.367188 -0.609375 -2.390625 L -0.625 -2.390625 Z M -0.625 -2.46875 C -0.613281 -2.457031 -0.601562 -2.445312 -0.59375 -2.4375 L -0.578125 -2.4375 C -0.597656 -2.445312 -0.609375 -2.457031 -0.609375 -2.46875 L -0.609375 -2.484375 Z M -0.5 -2.046875 C -0.507812 -2.054688 -0.519531 -2.0625 -0.53125 -2.0625 L -0.515625 -2 L -0.515625 -1.96875 C -0.492188 -1.976562 -0.476562 -1.976562 -0.46875 -1.96875 C -0.46875 -2 -0.472656 -2.015625 -0.484375 -2.015625 C -0.492188 -2.023438 -0.5 -2.03125 -0.5 -2.03125 C -0.507812 -2.039062 -0.507812 -2.046875 -0.5 -2.046875 Z M -0.5 -2.046875 "/></g></g></g><g fill="#e1d7b7" fill-opacity="1"><g transform="translate(6.23605, 10.821884)"><g><path d="M -0.125 -3.625 C -0.09375 -3.625 -0.0625 -3.609375 -0.03125 -3.578125 C -0.0078125 -3.554688 0 -3.523438 0 -3.484375 L 0 -2.5 C 0 -2.425781 -0.0390625 -2.382812 -0.125 -2.375 L -0.921875 -2.296875 L -0.71875 -1.3125 L -0.125 -1.171875 C -0.0507812 -1.148438 -0.015625 -1.109375 -0.015625 -1.046875 L -0.046875 -0.078125 C -0.046875 -0.0234375 -0.0625 0.0078125 -0.09375 0.03125 C -0.125 0.0507812 -0.160156 0.0546875 -0.203125 0.046875 C -0.617188 -0.0546875 -1.132812 -0.207031 -1.75 -0.40625 C -2.082031 -0.5 -2.457031 -0.628906 -2.875 -0.796875 C -3.257812 -0.953125 -3.753906 -1.160156 -4.359375 -1.421875 C -4.398438 -1.429688 -4.425781 -1.460938 -4.4375 -1.515625 L -4.46875 -1.65625 C -4.488281 -1.78125 -4.503906 -1.878906 -4.515625 -1.953125 C -4.523438 -1.992188 -4.53125 -2.054688 -4.53125 -2.140625 C -4.53125 -2.222656 -4.53125 -2.285156 -4.53125 -2.328125 C -4.507812 -2.535156 -4.359375 -2.703125 -4.078125 -2.828125 C -3.972656 -2.867188 -3.820312 -2.914062 -3.625 -2.96875 C -3.382812 -3.03125 -3.144531 -3.082031 -2.90625 -3.125 L -0.15625 -3.625 Z M -4.25 -1.578125 L -4.28125 -1.578125 L -4.28125 -1.546875 L -4.25 -1.546875 Z M -4.078125 -2.359375 L -4.125 -2.359375 L -4.125 -2.34375 L -4.078125 -2.34375 Z M -3.953125 -2.3125 C -3.972656 -2.320312 -3.992188 -2.328125 -4.015625 -2.328125 C -4.015625 -2.304688 -4.015625 -2.296875 -4.015625 -2.296875 L -3.984375 -2.296875 Z M -3.984375 -1.546875 L -3.90625 -1.546875 C -3.914062 -1.546875 -3.941406 -1.554688 -3.984375 -1.578125 Z M -3.96875 -2.421875 C -3.976562 -2.421875 -3.984375 -2.425781 -3.984375 -2.4375 L -3.984375 -2.359375 L -3.953125 -2.359375 C -3.953125 -2.367188 -3.945312 -2.375 -3.9375 -2.375 L -3.9375 -2.390625 C -3.945312 -2.390625 -3.957031 -2.398438 -3.96875 -2.421875 Z M -3.9375 -2.359375 L -3.953125 -2.359375 L -3.984375 -2.34375 L -3.953125 -2.34375 Z M -3.90625 -2.484375 C -3.90625 -2.472656 -3.890625 -2.457031 -3.859375 -2.4375 L -3.84375 -2.453125 L -3.84375 -2.546875 L -3.859375 -2.5625 C -3.867188 -2.539062 -3.882812 -2.53125 -3.90625 -2.53125 L -3.921875 -2.546875 C -3.910156 -2.515625 -3.90625 -2.492188 -3.90625 -2.484375 Z M -3.734375 -2.46875 C -3.734375 -2.445312 -3.722656 -2.4375 -3.703125 -2.4375 C -3.691406 -2.445312 -3.6875 -2.457031 -3.6875 -2.46875 C -3.6875 -2.476562 -3.679688 -2.488281 -3.671875 -2.5 C -3.679688 -2.507812 -3.691406 -2.515625 -3.703125 -2.515625 L -3.71875 -2.53125 C -3.726562 -2.507812 -3.734375 -2.488281 -3.734375 -2.46875 Z M -3.671875 -1.9375 L -3.6875 -1.9375 L -3.671875 -1.921875 Z M -3.609375 -2.015625 L -3.609375 -2.046875 C -3.597656 -2.046875 -3.59375 -2.046875 -3.59375 -2.046875 C -3.601562 -2.054688 -3.609375 -2.0625 -3.609375 -2.0625 C -3.628906 -2.0625 -3.640625 -2.0625 -3.640625 -2.0625 C -3.640625 -2.050781 -3.640625 -2.039062 -3.640625 -2.03125 L -3.640625 -2 Z M -3.515625 -2.578125 C -3.515625 -2.578125 -3.507812 -2.566406 -3.5 -2.546875 C -3.5 -2.535156 -3.492188 -2.53125 -3.484375 -2.53125 C -3.472656 -2.53125 -3.46875 -2.535156 -3.46875 -2.546875 L -3.46875 -2.59375 C -3.46875 -2.601562 -3.472656 -2.609375 -3.484375 -2.609375 C -3.503906 -2.609375 -3.515625 -2.597656 -3.515625 -2.578125 Z M -3.265625 -1.140625 C -3.273438 -1.140625 -3.269531 -1.128906 -3.25 -1.109375 C -3.238281 -1.097656 -3.234375 -1.09375 -3.234375 -1.09375 C -3.222656 -1.09375 -3.207031 -1.097656 -3.1875 -1.109375 C -3.164062 -1.117188 -3.15625 -1.128906 -3.15625 -1.140625 C -3.175781 -1.140625 -3.195312 -1.140625 -3.21875 -1.140625 C -3.238281 -1.140625 -3.253906 -1.140625 -3.265625 -1.140625 Z M -3.171875 -1.59375 C -3.171875 -1.59375 -3.171875 -1.597656 -3.171875 -1.609375 C -3.171875 -1.617188 -3.175781 -1.625 -3.1875 -1.625 L -3.1875 -1.59375 Z M -3 -1.125 L -3 -1.15625 L -3.078125 -1.15625 L -3.078125 -1.125 Z M -3.046875 -1.90625 C -3.046875 -1.863281 -3.03125 -1.832031 -3 -1.8125 C -2.96875 -1.820312 -2.945312 -1.832031 -2.9375 -1.84375 C -2.9375 -1.863281 -2.941406 -1.882812 -2.953125 -1.90625 L -3.015625 -1.9375 L -3.03125 -1.921875 C -3.03125 -1.921875 -3.035156 -1.914062 -3.046875 -1.90625 Z M -3.03125 -2.609375 L -3.03125 -2.65625 Z M -2.921875 -2.671875 C -2.941406 -2.671875 -2.953125 -2.660156 -2.953125 -2.640625 L -2.9375 -2.625 L -2.921875 -2.640625 Z M -2.203125 -2.109375 C -2.335938 -2.085938 -2.441406 -2.070312 -2.515625 -2.0625 C -2.691406 -2.03125 -2.828125 -2.003906 -2.921875 -1.984375 L -1.875 -1.65625 L -1.890625 -2.140625 Z M -2.828125 -1.828125 L -2.828125 -1.84375 L -2.875 -1.859375 L -2.890625 -1.84375 Z M -2.828125 -2.46875 L -2.859375 -2.46875 L -2.84375 -2.4375 Z M -2.453125 -1.640625 C -2.460938 -1.648438 -2.476562 -1.660156 -2.5 -1.671875 C -2.519531 -1.691406 -2.535156 -1.707031 -2.546875 -1.71875 L -2.59375 -1.734375 L -2.734375 -1.796875 L -2.75 -1.765625 L -2.71875 -1.734375 C -2.707031 -1.710938 -2.703125 -1.703125 -2.703125 -1.703125 C -2.617188 -1.671875 -2.578125 -1.65625 -2.578125 -1.65625 C -2.546875 -1.644531 -2.53125 -1.640625 -2.53125 -1.640625 C -2.519531 -1.640625 -2.507812 -1.628906 -2.5 -1.609375 C -2.5 -1.609375 -2.488281 -1.601562 -2.46875 -1.59375 L -2.3125 -1.546875 L -2.21875 -1.53125 C -2.1875 -1.507812 -2.15625 -1.488281 -2.125 -1.46875 C -2.09375 -1.4375 -2.066406 -1.414062 -2.046875 -1.40625 C -2.023438 -1.40625 -2.007812 -1.40625 -2 -1.40625 C -1.988281 -1.394531 -1.96875 -1.390625 -1.9375 -1.390625 C -1.914062 -1.390625 -1.890625 -1.378906 -1.859375 -1.359375 C -1.816406 -1.335938 -1.789062 -1.328125 -1.78125 -1.328125 C -1.75 -1.328125 -1.734375 -1.328125 -1.734375 -1.328125 C -1.722656 -1.347656 -1.722656 -1.363281 -1.734375 -1.375 C -1.734375 -1.375 -1.738281 -1.378906 -1.75 -1.390625 C -1.789062 -1.410156 -1.828125 -1.421875 -1.859375 -1.421875 C -1.898438 -1.429688 -1.9375 -1.445312 -1.96875 -1.46875 C -1.976562 -1.46875 -1.992188 -1.484375 -2.015625 -1.515625 L -2.09375 -1.53125 C -2.101562 -1.539062 -2.132812 -1.554688 -2.1875 -1.578125 C -2.25 -1.597656 -2.3125 -1.617188 -2.375 -1.640625 Z M -2.609375 -2.546875 L -2.625 -2.5 L -2.59375 -2.5 L -2.59375 -2.546875 Z M -2.546875 -2.671875 L -2.5625 -2.640625 L -2.546875 -2.640625 L -2.53125 -2.671875 Z M -2.515625 -2.359375 C -2.503906 -2.367188 -2.5 -2.375 -2.5 -2.375 C -2.5 -2.382812 -2.503906 -2.390625 -2.515625 -2.390625 Z M -2.28125 -2.703125 C -2.28125 -2.722656 -2.289062 -2.734375 -2.3125 -2.734375 Z M -2.265625 -2.28125 C -2.265625 -2.28125 -2.269531 -2.273438 -2.28125 -2.265625 L -2.296875 -2.25 L -2.265625 -2.25 Z M -2.203125 -2.515625 C -2.234375 -2.515625 -2.253906 -2.488281 -2.265625 -2.4375 C -2.265625 -2.425781 -2.25 -2.421875 -2.21875 -2.421875 L -2.21875 -2.46875 C -2.207031 -2.4375 -2.195312 -2.429688 -2.1875 -2.453125 L -2.1875 -2.515625 Z M -2.234375 -2.6875 C -2.234375 -2.71875 -2.238281 -2.734375 -2.25 -2.734375 C -2.25 -2.722656 -2.25 -2.71875 -2.25 -2.71875 C -2.257812 -2.71875 -2.265625 -2.71875 -2.265625 -2.71875 L -2.265625 -2.703125 C -2.265625 -2.691406 -2.257812 -2.6875 -2.25 -2.6875 Z M -2.234375 -2.609375 C -2.222656 -2.617188 -2.21875 -2.625 -2.21875 -2.625 L -2.25 -2.640625 C -2.25 -2.640625 -2.25 -2.625 -2.25 -2.59375 Z M -2.171875 -2.6875 C -2.160156 -2.707031 -2.15625 -2.722656 -2.15625 -2.734375 C -2.15625 -2.753906 -2.160156 -2.773438 -2.171875 -2.796875 C -2.191406 -2.773438 -2.203125 -2.757812 -2.203125 -2.75 L -2.203125 -2.6875 Z M -2.09375 -2.515625 C -2.09375 -2.535156 -2.085938 -2.546875 -2.078125 -2.546875 L -2.078125 -2.59375 L -2.109375 -2.59375 L -2.125 -2.5625 C -2.125 -2.5625 -2.125 -2.554688 -2.125 -2.546875 C -2.113281 -2.523438 -2.101562 -2.515625 -2.09375 -2.515625 Z M -2.109375 -2.25 L -2.09375 -2.25 L -2.09375 -2.296875 L -2.109375 -2.296875 Z M -2.078125 -2.828125 C -2.097656 -2.828125 -2.109375 -2.820312 -2.109375 -2.8125 L -2.109375 -2.75 C -2.085938 -2.71875 -2.070312 -2.695312 -2.0625 -2.6875 C -2.0625 -2.675781 -2.0625 -2.671875 -2.0625 -2.671875 C -2.039062 -2.671875 -2 -2.691406 -1.9375 -2.734375 L -1.9375 -2.84375 C -1.96875 -2.832031 -1.984375 -2.816406 -1.984375 -2.796875 C -1.984375 -2.785156 -1.992188 -2.765625 -2.015625 -2.734375 C -2.023438 -2.765625 -2.035156 -2.78125 -2.046875 -2.78125 C -2.054688 -2.789062 -2.066406 -2.804688 -2.078125 -2.828125 Z M -2.09375 -1.234375 L -2.03125 -1.21875 C -2.007812 -1.21875 -1.992188 -1.222656 -1.984375 -1.234375 C -2.003906 -1.242188 -2.023438 -1.25 -2.046875 -1.25 L -2.09375 -1.25 Z M -2.0625 -2.53125 L -2.0625 -2.46875 L -2.046875 -2.46875 L -2.015625 -2.5 L -2.03125 -2.515625 L -2.03125 -2.53125 Z M -2.015625 -2.609375 C -2.015625 -2.609375 -2.015625 -2.601562 -2.015625 -2.59375 C -2.023438 -2.59375 -2.03125 -2.59375 -2.03125 -2.59375 L -1.953125 -2.59375 C -1.972656 -2.613281 -1.992188 -2.625 -2.015625 -2.625 Z M -1.984375 -2.453125 C -1.992188 -2.441406 -1.992188 -2.429688 -1.984375 -2.421875 C -1.984375 -2.410156 -1.984375 -2.398438 -1.984375 -2.390625 L -1.953125 -2.421875 C -1.960938 -2.421875 -1.96875 -2.429688 -1.96875 -2.453125 L -1.953125 -2.5 C -1.953125 -2.507812 -1.957031 -2.519531 -1.96875 -2.53125 C -1.976562 -2.539062 -1.984375 -2.546875 -1.984375 -2.546875 Z M -1.921875 -2.390625 L -1.90625 -2.375 L -1.890625 -2.390625 Z M -1.828125 -2.46875 C -1.828125 -2.476562 -1.832031 -2.484375 -1.84375 -2.484375 L -1.859375 -2.4375 L -1.84375 -2.421875 L -1.828125 -2.421875 L -1.8125 -2.46875 C -1.820312 -2.46875 -1.828125 -2.46875 -1.828125 -2.46875 Z M -1.828125 -2.375 C -1.828125 -2.382812 -1.832031 -2.390625 -1.84375 -2.390625 Z M -1.75 -2.734375 C -1.757812 -2.734375 -1.769531 -2.726562 -1.78125 -2.71875 L -1.78125 -2.703125 C -1.78125 -2.691406 -1.773438 -2.6875 -1.765625 -2.6875 Z M -1.65625 -2.671875 C -1.664062 -2.671875 -1.679688 -2.671875 -1.703125 -2.671875 C -1.722656 -2.660156 -1.734375 -2.65625 -1.734375 -2.65625 C -1.765625 -2.613281 -1.78125 -2.578125 -1.78125 -2.546875 C -1.769531 -2.546875 -1.765625 -2.550781 -1.765625 -2.5625 C -1.753906 -2.582031 -1.734375 -2.597656 -1.703125 -2.609375 L -1.65625 -2.609375 Z M -1.734375 -2.328125 L -1.703125 -2.328125 L -1.703125 -2.34375 L -1.734375 -2.34375 Z M -1.65625 -2.953125 L -1.65625 -2.90625 Z M -1.609375 -2.46875 L -1.609375 -2.5 L -1.65625 -2.5 L -1.65625 -2.46875 Z M -1.59375 -2.328125 L -1.609375 -2.328125 L -1.609375 -2.3125 L -1.59375 -2.3125 Z M -1.578125 -2.078125 L -1.5625 -2.078125 L -1.5625 -2.109375 L -1.578125 -2.109375 Z M -1.46875 -2.25 C -1.46875 -2.257812 -1.476562 -2.265625 -1.5 -2.265625 C -1.5 -2.253906 -1.492188 -2.238281 -1.484375 -2.21875 L -1.484375 -2.234375 Z M -1.453125 -2.46875 C -1.429688 -2.445312 -1.421875 -2.4375 -1.421875 -2.4375 C -1.410156 -2.457031 -1.40625 -2.476562 -1.40625 -2.5 C -1.425781 -2.53125 -1.441406 -2.546875 -1.453125 -2.546875 C -1.453125 -2.546875 -1.460938 -2.539062 -1.484375 -2.53125 C -1.484375 -2.507812 -1.488281 -2.5 -1.5 -2.5 Z M -1.265625 -2.609375 L -1.265625 -2.640625 L -1.28125 -2.640625 L -1.28125 -2.609375 Z M -1.265625 -2.515625 C -1.242188 -2.515625 -1.226562 -2.53125 -1.21875 -2.5625 L -1.265625 -2.5625 Z M -1.21875 -2.78125 C -1.21875 -2.78125 -1.207031 -2.785156 -1.1875 -2.796875 C -1.175781 -2.804688 -1.171875 -2.816406 -1.171875 -2.828125 C -1.171875 -2.859375 -1.171875 -2.875 -1.171875 -2.875 C -1.171875 -2.875 -1.171875 -2.882812 -1.171875 -2.90625 C -1.179688 -2.90625 -1.1875 -2.898438 -1.1875 -2.890625 L -1.21875 -2.875 C -1.21875 -2.863281 -1.234375 -2.859375 -1.265625 -2.859375 C -1.253906 -2.859375 -1.25 -2.847656 -1.25 -2.828125 Z M -1.21875 -1.3125 L -1.1875 -1.3125 L -1.1875 -1.375 L -1.21875 -1.375 Z M -1.09375 -1.21875 C -1.113281 -1.21875 -1.125 -1.21875 -1.125 -1.21875 C -1.15625 -1.164062 -1.171875 -1.132812 -1.171875 -1.125 C -1.171875 -1.101562 -1.160156 -1.085938 -1.140625 -1.078125 C -1.128906 -1.066406 -1.117188 -1.0625 -1.109375 -1.0625 C -1.097656 -1.0625 -1.082031 -1.070312 -1.0625 -1.09375 C -1.050781 -1.113281 -1.046875 -1.132812 -1.046875 -1.15625 C -1.046875 -1.164062 -1.046875 -1.171875 -1.046875 -1.171875 L -1.046875 -1.234375 Z M -1.171875 -2.328125 L -1.140625 -2.328125 L -1.140625 -2.34375 L -1.171875 -2.34375 Z M -1.140625 -3.078125 L -1.15625 -3.078125 L -1.15625 -3.046875 L -1.140625 -3.046875 Z M -1.140625 -2.40625 C -1.128906 -2.414062 -1.125 -2.421875 -1.125 -2.421875 L -1.125 -2.5 L -1.140625 -2.5 Z M -1.125 -2.078125 L -1.125 -2.0625 L -1.109375 -2.0625 L -1.125 -2.09375 Z M -0.234375 -3.171875 C -0.234375 -3.179688 -0.238281 -3.191406 -0.25 -3.203125 L -0.40625 -3.1875 L -0.5625 -3.15625 L -0.59375 -3.125 L -0.625 -3.109375 C -0.632812 -3.109375 -0.648438 -3.125 -0.671875 -3.15625 C -0.691406 -3.113281 -0.710938 -3.09375 -0.734375 -3.09375 C -0.753906 -3.101562 -0.769531 -3.109375 -0.78125 -3.109375 C -0.8125 -3.109375 -0.84375 -3.097656 -0.875 -3.078125 C -0.894531 -3.066406 -0.910156 -3.0625 -0.921875 -3.0625 C -0.929688 -3.0625 -0.9375 -3.066406 -0.9375 -3.078125 C -0.9375 -3.085938 -0.945312 -3.09375 -0.96875 -3.09375 C -0.976562 -3.09375 -1 -3.085938 -1.03125 -3.078125 L -0.984375 -3.03125 L -0.953125 -2.984375 L -0.96875 -2.953125 L -1.03125 -2.953125 C -1.050781 -2.953125 -1.0625 -2.972656 -1.0625 -3.015625 L -1.046875 -3.046875 L -1.09375 -3.046875 C -1.101562 -3.035156 -1.109375 -3.015625 -1.109375 -2.984375 C -1.117188 -2.960938 -1.125 -2.953125 -1.125 -2.953125 C -1.125 -2.921875 -1.117188 -2.890625 -1.109375 -2.859375 C -1.097656 -2.835938 -1.082031 -2.828125 -1.0625 -2.828125 C -1.050781 -2.828125 -1.046875 -2.828125 -1.046875 -2.828125 L -1.015625 -2.859375 C -1.003906 -2.847656 -0.988281 -2.847656 -0.96875 -2.859375 L -0.953125 -2.890625 C -0.953125 -2.890625 -0.945312 -2.890625 -0.9375 -2.890625 C -0.9375 -2.898438 -0.9375 -2.90625 -0.9375 -2.90625 C -0.925781 -2.882812 -0.921875 -2.867188 -0.921875 -2.859375 C -0.921875 -2.816406 -0.910156 -2.796875 -0.890625 -2.796875 C -0.859375 -2.785156 -0.84375 -2.78125 -0.84375 -2.78125 C -0.851562 -2.789062 -0.851562 -2.800781 -0.84375 -2.8125 C -0.84375 -2.820312 -0.835938 -2.828125 -0.828125 -2.828125 C -0.816406 -2.828125 -0.8125 -2.820312 -0.8125 -2.8125 C -0.8125 -2.800781 -0.8125 -2.796875 -0.8125 -2.796875 C -0.800781 -2.796875 -0.796875 -2.796875 -0.796875 -2.796875 L -0.765625 -2.78125 L -0.703125 -2.78125 C -0.703125 -2.78125 -0.691406 -2.800781 -0.671875 -2.84375 C -0.648438 -2.882812 -0.632812 -2.890625 -0.625 -2.859375 C -0.613281 -2.867188 -0.609375 -2.894531 -0.609375 -2.9375 C -0.609375 -2.945312 -0.613281 -2.957031 -0.625 -2.96875 L -0.625 -3 L -0.53125 -3 L -0.53125 -2.984375 L -0.5 -3.015625 C -0.488281 -3.023438 -0.484375 -3.03125 -0.484375 -3.03125 C -0.472656 -3.03125 -0.46875 -3.035156 -0.46875 -3.046875 C -0.46875 -3.046875 -0.460938 -3.050781 -0.453125 -3.0625 L -0.390625 -3.078125 C -0.367188 -3.078125 -0.351562 -3.085938 -0.34375 -3.109375 C -0.332031 -3.109375 -0.328125 -3.109375 -0.328125 -3.109375 L -0.3125 -3.109375 C -0.300781 -3.109375 -0.285156 -3.113281 -0.265625 -3.125 C -0.242188 -3.144531 -0.234375 -3.160156 -0.234375 -3.171875 Z M -1.015625 -0.703125 C -1.035156 -0.722656 -1.046875 -0.71875 -1.046875 -0.6875 L -1.03125 -0.6875 Z M -0.921875 -0.984375 C -0.921875 -0.992188 -0.929688 -0.992188 -0.953125 -0.984375 C -0.941406 -0.972656 -0.929688 -0.96875 -0.921875 -0.96875 C -0.910156 -0.96875 -0.90625 -0.972656 -0.90625 -0.984375 C -0.90625 -0.984375 -0.910156 -0.984375 -0.921875 -0.984375 Z M -0.84375 -2.734375 C -0.84375 -2.734375 -0.851562 -2.734375 -0.875 -2.734375 L -0.875 -2.6875 C -0.851562 -2.6875 -0.84375 -2.691406 -0.84375 -2.703125 C -0.84375 -2.703125 -0.835938 -2.707031 -0.828125 -2.71875 C -0.835938 -2.71875 -0.84375 -2.71875 -0.84375 -2.71875 C -0.84375 -2.71875 -0.84375 -2.722656 -0.84375 -2.734375 Z M -0.796875 -0.828125 L -0.8125 -0.84375 L -0.84375 -0.84375 C -0.851562 -0.84375 -0.859375 -0.832031 -0.859375 -0.8125 L -0.84375 -0.796875 C -0.84375 -0.796875 -0.84375 -0.789062 -0.84375 -0.78125 L -0.8125 -0.78125 Z M -0.84375 -2.421875 L -0.828125 -2.421875 L -0.828125 -2.46875 L -0.84375 -2.46875 Z M -0.765625 -2.59375 C -0.785156 -2.59375 -0.796875 -2.582031 -0.796875 -2.5625 C -0.796875 -2.550781 -0.796875 -2.546875 -0.796875 -2.546875 L -0.765625 -2.546875 Z M -0.6875 -0.8125 C -0.695312 -0.8125 -0.703125 -0.8125 -0.703125 -0.8125 C -0.710938 -0.820312 -0.71875 -0.828125 -0.71875 -0.828125 L -0.734375 -0.875 L -0.765625 -0.875 C -0.765625 -0.863281 -0.765625 -0.859375 -0.765625 -0.859375 L -0.796875 -0.828125 C -0.753906 -0.816406 -0.734375 -0.785156 -0.734375 -0.734375 C -0.722656 -0.734375 -0.710938 -0.738281 -0.703125 -0.75 C -0.691406 -0.757812 -0.6875 -0.769531 -0.6875 -0.78125 C -0.6875 -0.789062 -0.6875 -0.800781 -0.6875 -0.8125 Z M -0.734375 -2.5 C -0.734375 -2.488281 -0.734375 -2.476562 -0.734375 -2.46875 L -0.6875 -2.484375 L -0.703125 -2.546875 Z M -0.5625 -1.0625 C -0.5625 -1.070312 -0.570312 -1.078125 -0.59375 -1.078125 L -0.609375 -1.0625 C -0.609375 -1.050781 -0.601562 -1.046875 -0.59375 -1.046875 L -0.59375 -1.015625 L -0.5625 -1.046875 Z M -0.53125 -0.796875 C -0.53125 -0.785156 -0.53125 -0.773438 -0.53125 -0.765625 C -0.539062 -0.765625 -0.546875 -0.757812 -0.546875 -0.75 C -0.546875 -0.726562 -0.539062 -0.71875 -0.53125 -0.71875 C -0.519531 -0.71875 -0.519531 -0.726562 -0.53125 -0.75 Z M -0.5 -0.875 C -0.507812 -0.882812 -0.515625 -0.890625 -0.515625 -0.890625 C -0.535156 -0.890625 -0.546875 -0.882812 -0.546875 -0.875 C -0.535156 -0.84375 -0.53125 -0.828125 -0.53125 -0.828125 Z M -0.5 -2.625 C -0.507812 -2.625 -0.519531 -2.613281 -0.53125 -2.59375 L -0.515625 -2.5625 L -0.5 -2.546875 Z M -0.1875 -2.6875 C -0.195312 -2.695312 -0.203125 -2.703125 -0.203125 -2.703125 C -0.222656 -2.679688 -0.242188 -2.671875 -0.265625 -2.671875 L -0.265625 -2.609375 C -0.242188 -2.617188 -0.222656 -2.628906 -0.203125 -2.640625 C -0.191406 -2.660156 -0.179688 -2.675781 -0.171875 -2.6875 Z M -0.1875 -2.6875 "/></g></g></g></svg>